Wavefont-wmin,rmax,amax,smax.ufo
<glyph name="_3" format="2">
	<unicode hex="0103"/>
	<advance width="200"/>
	<outline>
		<component base="cap" yOffset="970"/>
		<component base="cap" yOffset="992"/>
		<contour>
			<point x="0" y="974" type="line"/>
			<point x="0" y="996" type="line"/>
			<point x="8" y="996" type="line"/>
			<point x="8" y="974" type="line"/>
		</contour>
	</outline>
</glyph>
<glyph name="_7" format="2">
	<unicode hex="0107"/>
	<advance width="200"/>
	<outline>
		<component base="cap" yOffset="930"/>
		<component base="cap" yOffset="992"/>
		<contour>
			<point x="0" y="934" type="line"/>
			<point x="0" y="996" type="line"/>
			<point x="8" y="996" type="line"/>
			<point x="8" y="934" type="line"/>
		</contour>
	</outline>
</glyph>
<glyph name="_11" format="2">
	<unicode hex="010B"/>
	<advance width="200"/>
	<outline>
		<component base="cap" yOffset="890"/>
		<component base="cap" yOffset="992"/>
		<contour>
			<point x="0" y="894" type="line"/>
			<point x="0" y="996" type="line"/>
			<point x="8" y="996" type="line"/>
			<point x="8" y="894" type="line"/>
		</contour>
	</outline>
</glyph>
<glyph name="_15" format="2">
	<unicode hex="010F"/>
	<advance width="200"/>
	<outline>
		<component base="cap" yOffset="850"/>
		<component base="cap" yOffset="992"/>
		<contour>
			<point x="0" y="854" type="line"/>
			<point x="0" y="996" type="line"/>
			<point x="8" y="996" type="line"/>
			<point x="8" y="854" type="line"/>
		</contour>
	</outline>
</glyph>
<glyph name="_16" format="2">
	<unicode hex="0110"/>
	<unicode hex="0069"/>
	<advance width="200"/>
	<outline>
		<component base="cap" yOffset="840"/>
		<component base="cap" yOffset="992"/>
		<contour>
			<point x="0" y="844" type="line"/>
			<point x="0" y="996" type="line"/>
			<point x="8" y="996" type="line"/>
			<point x="8" y="844" type="line"/>
		</contour>
	</outline>
</glyph>
<glyph name="_17" format="2">
	<unicode hex="0111"/>
	<advance width="200"/>
	<outline>
		<component base="cap" yOffset="830"/>
		<component base="cap" yOffset="992"/>
		<contour>
			<point x="0" y="834" type="line"/>
			<point x="0" y="996" type="line"/>
			<point x="8" y="996" type="line"/>
			<point x="8" y="834" type="line"/>
		</contour>
	</outline>
</glyph>
<glyph name="_20" format="2">
	<unicode hex="0114"/>
	<unicode hex="0032"/>
	<unicode hex="006B"/>
	<advance width="200"/>
	<outline>
		<component base="cap" yOffset="800"/>
		<component base="cap" yOffset="992"/>
		<contour>
			<point x="0" y="804" type="line"/>
			<point x="0" y="996" type="line"/>
			<point x="8" y="996" type="line"/>
			<point x="8" y="804" type="line"/>
		</contour>
	</outline>
</glyph>
<glyph name="_22" format="2">
	<unicode hex="0116"/>
	<unicode hex="006C"/>
	<advance width="200"/>
	<outline>
		<component base="cap" yOffset="780"/>
		<component base="cap" yOffset="992"/>
		<contour>
			<point x="0" y="784" type="line"/>
			<point x="0" y="996" type="line"/>
			<point x="8" y="996" type="line"/>
			<point x="8" y="784" type="line"/>
		</contour>
	</outline>
</glyph>
<glyph name="_23" format="2">
	<unicode hex="0117"/>
	<advance width="200"/>
	<outline>
		<component base="cap" yOffset="770"/>
		<component base="cap" yOffset="992"/>
		<contour>
			<point x="0" y="774" type="line"/>
			<point x="0" y="996" type="line"/>
			<point x="8" y="996" type="line"/>
			<point x="8" y="774" type="line"/>
		</contour>
	</outline>
</glyph>
<glyph name="_25" format="2">
	<unicode hex="0119"/>
	<advance width="200"/>
	<outline>
		<component base="cap" yOffset="750"/>
		<component base="cap" yOffset="992"/>
		<contour>
			<point x="0" y="754" type="line"/>
			<point x="0" y="996" type="line"/>
			<point x="8" y="996" type="line"/>
			<point x="8" y="754" type="line"/>
		</contour>
	</outline>
</glyph>
<glyph name="_26" format="2">
	<unicode hex="011A"/>
	<unicode hex="006E"/>
	<advance width="200"/>
	<outline>
		<component base="cap" yOffset="740"/>
		<component base="cap" yOffset="992"/>
		<contour>
			<point x="0" y="744" type="line"/>
			<point x="0" y="996" type="line"/>
			<point x="8" y="996" type="line"/>
			<point x="8" y="744" type="line"/>
		</contour>
	</outline>
</glyph>
<glyph name="_29" format="2">
	<unicode hex="011D"/>
	<advance width="200"/>
	<outline>
		<component base="cap" yOffset="710"/>
		<component base="cap" yOffset="992"/>
		<contour>
			<point x="0" y="714" type="line"/>
			<point x="0" y="996" type="line"/>
			<point x="8" y="996" type="line"/>
			<point x="8" y="714" type="line"/>
		</contour>
	</outline>
</glyph>
<glyph name="_34" format="2">
	<unicode hex="0122"/>
	<unicode hex="0072"/>
	<advance width="200"/>
	<outline>
		<component base="cap" yOffset="660"/>
		<component base="cap" yOffset="992"/>
		<contour>
			<point x="0" y="664" type="line"/>
			<point x="0" y="996" type="line"/>
			<point x="8" y="996" type="line"/>
			<point x="8" y="664" type="line"/>
		</contour>
	</outline>
</glyph>
<glyph name="_36" format="2">
	<unicode hex="0124"/>
	<unicode hex="0073"/>
	<advance width="200"/>
	<outline>
		<component base="cap" yOffset="640"/>
		<component base="cap" yOffset="992"/>
		<contour>
			<point x="0" y="644" type="line"/>
			<point x="0" y="996" type="line"/>
			<point x="8" y="996" type="line"/>
			<point x="8" y="644" type="line"/>
		</contour>
	</outline>
</glyph>
<glyph name="_37" format="2">
	<unicode hex="0125"/>
	<advance width="200"/>
	<outline>
		<component base="cap" yOffset="630"/>
		<component base="cap" yOffset="992"/>
		<contour>
			<point x="0" y="634" type="line"/>
			<point x="0" y="996" type="line"/>
			<point x="8" y="996" type="line"/>
			<point x="8" y="634" type="line"/>
		</contour>
	</outline>
</glyph>
<glyph name="_38" format="2">
	<unicode hex="0126"/>
	<unicode hex="0074"/>
	<advance width="200"/>
	<outline>
		<component base="cap" yOffset="620"/>
		<component base="cap" yOffset="992"/>
		<contour>
			<point x="0" y="624" type="line"/>
			<point x="0" y="996" type="line"/>
			<point x="8" y="996" type="line"/>
			<point x="8" y="624" type="line"/>
		</contour>
	</outline>
</glyph>
<glyph name="_39" format="2">
	<unicode hex="0127"/>
	<advance width="200"/>
	<outline>
		<component base="cap" yOffset="610"/>
		<component base="cap" yOffset="992"/>
		<contour>
			<point x="0" y="614" type="line"/>
			<point x="0" y="996" type="line"/>
			<point x="8" y="996" type="line"/>
			<point x="8" y="614" type="line"/>
		</contour>
	</outline>
</glyph>
<glyph name="_41" format="2">
	<unicode hex="0129"/>
	<advance width="200"/>
	<outline>
		<component base="cap" yOffset="590"/>
		<component base="cap" yOffset="992"/>
		<contour>
			<point x="0" y="594" type="line"/>
			<point x="0" y="996" type="line"/>
			<point x="8" y="996" type="line"/>
			<point x="8" y="594" type="line"/>
		</contour>
	</outline>
</glyph>
<glyph name="_42" format="2">
	<unicode hex="012A"/>
	<unicode hex="2584"/>
	<unicode hex="0076"/>
	<advance width="200"/>
	<outline>
		<component base="cap" yOffset="580"/>
		<component base="cap" yOffset="992"/>
		<contour>
			<point x="0" y="584" type="line"/>
			<point x="0" y="996" type="line"/>
			<point x="8" y="996" type="line"/>
			<point x="8" y="584" type="line"/>
		</contour>
	</outline>
</glyph>
<glyph name="_46" format="2">
	<unicode hex="012E"/>
	<unicode hex="0078"/>
	<advance width="200"/>
	<outline>
		<component base="cap" yOffset="540"/>
		<component base="cap" yOffset="992"/>
		<contour>
			<point x="0" y="544" type="line"/>
			<point x="0" y="996" type="line"/>
			<point x="8" y="996" type="line"/>
			<point x="8" y="544" type="line"/>
		</contour>
	</outline>
</glyph>
<glyph name="_48" format="2">
	<unicode hex="0130"/>
	<unicode hex="0079"/>
	<advance width="200"/>
	<outline>
		<component base="cap" yOffset="520"/>
		<component base="cap" yOffset="992"/>
		<contour>
			<point x="0" y="524" type="line"/>
			<point x="0" y="996" type="line"/>
			<point x="8" y="996" type="line"/>
			<point x="8" y="524" type="line"/>
		</contour>
	</outline>
</glyph>
<glyph name="_50" format="2">
	<unicode hex="0132"/>
	<unicode hex="0035"/>
	<unicode hex="007A"/>
	<advance width="200"/>
	<outline>
		<component base="cap" yOffset="500"/>
		<component base="cap" yOffset="992"/>
		<contour>
			<point x="0" y="504" type="line"/>
			<point x="0" y="996" type="line"/>
			<point x="8" y="996" type="line"/>
			<point x="8" y="504" type="line"/>
		</contour>
	</outline>
</glyph>
<glyph name="_51" format="2">
	<unicode hex="0133"/>
	<advance width="200"/>
	<outline>
		<component base="cap" yOffset="490"/>
		<component base="cap" yOffset="992"/>
		<contour>
			<point x="0" y="494" type="line"/>
			<point x="0" y="996" type="line"/>
			<point x="8" y="996" type="line"/>
			<point x="8" y="494" type="line"/>
		</contour>
	</outline>
</glyph>
<glyph name="_59" format="2">
	<unicode hex="013B"/>
	<advance width="200"/>
	<outline>
		<component base="cap" yOffset="410"/>
		<component base="cap" yOffset="992"/>
		<contour>
			<point x="0" y="414" type="line"/>
			<point x="0" y="996" type="line"/>
			<point x="8" y="996" type="line"/>
			<point x="8" y="414" type="line"/>
		</contour>
	</outline>
</glyph>
<glyph name="_62" format="2">
	<unicode hex="013E"/>
	<unicode hex="0046"/>
	<advance width="200"/>
	<outline>
		<component base="cap" yOffset="380"/>
		<component base="cap" yOffset="992"/>
		<contour>
			<point x="0" y="384" type="line"/>
			<point x="0" y="996" type="line"/>
			<point x="8" y="996" type="line"/>
			<point x="8" y="384" type="line"/>
		</contour>
	</outline>
</glyph>
<glyph name="_66" format="2">
	<unicode hex="0142"/>
	<unicode hex="0048"/>
	<advance width="200"/>
	<outline>
		<component base="cap" yOffset="340"/>
		<component base="cap" yOffset="992"/>
		<contour>
			<point x="0" y="344" type="line"/>
			<point x="0" y="996" type="line"/>
			<point x="8" y="996" type="line"/>
			<point x="8" y="344" type="line"/>
		</contour>
	</outline>
</glyph>
<glyph name="_67" format="2">
	<unicode hex="0143"/>
	<advance width="200"/>
	<outline>
		<component base="cap" yOffset="330"/>
		<component base="cap" yOffset="992"/>
		<contour>
			<point x="0" y="334" type="line"/>
			<point x="0" y="996" type="line"/>
			<point x="8" y="996" type="line"/>
			<point x="8" y="334" type="line"/>
		</contour>
	</outline>
</glyph>
<glyph name="_71" format="2">
	<unicode hex="0147"/>
	<advance width="200"/>
	<outline>
		<component base="cap" yOffset="290"/>
		<component base="cap" yOffset="992"/>
		<contour>
			<point x="0" y="294" type="line"/>
			<point x="0" y="996" type="line"/>
			<point x="8" y="996" type="line"/>
			<point x="8" y="294" type="line"/>
		</contour>
	</outline>
</glyph>
<glyph name="_74" format="2">
	<unicode hex="014A"/>
	<unicode hex="004C"/>
	<advance width="200"/>
	<outline>
		<component base="cap" yOffset="260"/>
		<component base="cap" yOffset="992"/>
		<contour>
			<point x="0" y="264" type="line"/>
			<point x="0" y="996" type="line"/>
			<point x="8" y="996" type="line"/>
			<point x="8" y="264" type="line"/>
		</contour>
	</outline>
</glyph>
<glyph name="_78" format="2">
	<unicode hex="014E"/>
	<unicode hex="004E"/>
	<advance width="200"/>
	<outline>
		<component base="cap" yOffset="220"/>
		<component base="cap" yOffset="992"/>
		<contour>
			<point x="0" y="224" type="line"/>
			<point x="0" y="996" type="line"/>
			<point x="8" y="996" type="line"/>
			<point x="8" y="224" type="line"/>
		</contour>
	</outline>
</glyph>
<glyph name="_81" format="2">
	<unicode hex="0151"/>
	<advance width="200"/>
	<outline>
		<component base="cap" yOffset="190"/>
		<component base="cap" yOffset="992"/>
		<contour>
			<point x="0" y="194" type="line"/>
			<point x="0" y="996" type="line"/>
			<point x="8" y="996" type="line"/>
			<point x="8" y="194" type="line"/>
		</contour>
	</outline>
</glyph>
<glyph name="_83" format="2">
	<unicode hex="0153"/>
	<advance width="200"/>
	<outline>
		<component base="cap" yOffset="170"/>
		<component base="cap" yOffset="992"/>
		<contour>
			<point x="0" y="174" type="line"/>
			<point x="0" y="996" type="line"/>
			<point x="8" y="996" type="line"/>
			<point x="8" y="174" type="line"/>
		</contour>
	</outline>
</glyph>
<glyph name="_85" format="2">
	<unicode hex="0155"/>
	<advance width="200"/>
	<outline>
		<component base="cap" yOffset="150"/>
		<component base="cap" yOffset="992"/>
		<contour>
			<point x="0" y="154" type="line"/>
			<point x="0" y="996" type="line"/>
			<point x="8" y="996" type="line"/>
			<point x="8" y="154" type="line"/>
		</contour>
	</outline>
</glyph>
<glyph name="_90" format="2">
	<unicode hex="015A"/>
	<unicode hex="0039"/>
	<unicode hex="0054"/>
	<advance width="200"/>
	<outline>
		<component base="cap" yOffset="100"/>
		<component base="cap" yOffset="992"/>
		<contour>
			<point x="0" y="104" type="line"/>
			<point x="0" y="996" type="line"/>
			<point x="8" y="996" type="line"/>
			<point x="8" y="104" type="line"/>
		</contour>
	</outline>
</glyph>
<glyph name="_92" format="2">
	<unicode hex="015C"/>
	<unicode hex="0055"/>
	<advance width="200"/>
	<outline>
		<component base="cap" yOffset="80"/>
		<component base="cap" yOffset="992"/>
		<contour>
			<point x="0" y="84" type="line"/>
			<point x="0" y="996" type="line"/>
			<point x="8" y="996" type="line"/>
			<point x="8" y="84" type="line"/>
		</contour>
	</outline>
</glyph>
<glyph name="_93" format="2">
	<unicode hex="015D"/>
	<advance width="200"/>
	<outline>
		<component base="cap" yOffset="70"/>
		<component base="cap" yOffset="992"/>
		<contour>
			<point x="0" y="74" type="line"/>
			<point x="0" y="996" type="line"/>
			<point x="8" y="996" type="line"/>
			<point x="8" y="74" type="line"/>
		</contour>
	</outline>
</glyph>
<glyph name="_96" format="2">
	<unicode hex="0160"/>
	<unicode hex="0057"/>
	<advance width="200"/>
	<outline>
		<component base="cap" yOffset="40"/>
		<component base="cap" yOffset="992"/>
		<contour>
			<point x="0" y="44" type="line"/>
			<point x="0" y="996" type="line"/>
			<point x="8" y="996" type="line"/>
			<point x="8" y="44" type="line"/>
		</contour>
	</outline>
</glyph>
<glyph name="_98" format="2">
	<unicode hex="0162"/>
	<unicode hex="0058"/>
	<advance width="200"/>
	<outline>
		<component base="cap" yOffset="20"/>
		<component base="cap" yOffset="992"/>
		<contour>
			<point x="0" y="24" type="line"/>
			<point x="0" y="996" type="line"/>
			<point x="8" y="996" type="line"/>
			<point x="8" y="24" type="line"/>
		</contour>
	</outline>
</glyph>
<glyph name="_102" format="2">
	<unicode hex="0166"/>
	<advance width="200"/>
	<outline>
		<component base="cap" yOffset="-20"/>
		<component base="cap" yOffset="992"/>
		<contour>
			<point x="0" y="-16" type="line"/>
			<point x="0" y="996" type="line"/>
			<point x="8" y="996" type="line"/>
			<point x="8" y="-16" type="line"/>
		</contour>
	</outline>
</glyph>
<glyph name="_105" format="2">
	<unicode hex="0169"/>
	<advance width="200"/>
	<outline>
		<component base="cap" yOffset="-50"/>
		<component base="cap" yOffset="992"/>
		<contour>
			<point x="0" y="-46" type="line"/>
			<point x="0" y="996" type="line"/>
			<point x="8" y="996" type="line"/>
			<point x="8" y="-46" type="line"/>
		</contour>
	</outline>
</glyph>
<glyph name="_106" format="2">
	<unicode hex="016A"/>
	<advance width="200"/>
	<outline>
		<component base="cap" yOffset="-60"/>
		<component base="cap" yOffset="992"/>
		<contour>
			<point x="0" y="-56" type="line"/>
			<point x="0" y="996" type="line"/>
			<point x="8" y="996" type="line"/>
			<point x="8" y="-56" type="line"/>
		</contour>
	</outline>
</glyph>
<glyph name="_108" format="2">
	<unicode hex="016C"/>
	<advance width="200"/>
	<outline>
		<component base="cap" yOffset="-80"/>
		<component base="cap" yOffset="992"/>
		<contour>
			<point x="0" y="-76" type="line"/>
			<point x="0" y="996" type="line"/>
			<point x="8" y="996" type="line"/>
			<point x="8" y="-76" type="line"/>
		</contour>
	</outline>
</glyph>
<glyph name="_110" format="2">
	<unicode hex="016E"/>
	<advance width="200"/>
	<outline>
		<component base="cap" yOffset="-100"/>
		<component base="cap" yOffset="992"/>
		<contour>
			<point x="0" y="-96" type="line"/>
			<point x="0" y="996" type="line"/>
			<point x="8" y="996" type="line"/>
			<point x="8" y="-96" type="line"/>
		</contour>
	</outline>
</glyph>
<glyph name="_111" format="2">
	<unicode hex="016F"/>
	<advance width="200"/>
	<outline>
		<component base="cap" yOffset="-110"/>
		<component base="cap" yOffset="992"/>
		<contour>
			<point x="0" y="-106" type="line"/>
			<point x="0" y="996" type="line"/>
			<point x="8" y="996" type="line"/>
			<point x="8" y="-106" type="line"/>
		</contour>
	</outline>
</glyph>
<glyph name="_113" format="2">
	<unicode hex="0171"/>
	<advance width="200"/>
	<outline>
		<component base="cap" yOffset="-130"/>
		<component base="cap" yOffset="992"/>
		<contour>
			<point x="0" y="-126" type="line"/>
			<point x="0" y="996" type="line"/>
			<point x="8" y="996" type="line"/>
			<point x="8" y="-126" type="line"/>
		</contour>
	</outline>
</glyph>
<glyph name="_115" format="2">
	<unicode hex="0173"/>
	<advance width="200"/>
	<outline>
		<component base="cap" yOffset="-150"/>
		<component base="cap" yOffset="992"/>
		<contour>
			<point x="0" y="-146" type="line"/>
			<point x="0" y="996" type="line"/>
			<point x="8" y="996" type="line"/>
			<point x="8" y="-146" type="line"/>
		</contour>
	</outline>
</glyph>
<glyph name="_117" format="2">
	<unicode hex="0175"/>
	<advance width="200"/>
	<outline>
		<component base="cap" yOffset="-170"/>
		<component base="cap" yOffset="992"/>
		<contour>
			<point x="0" y="-166" type="line"/>
			<point x="0" y="996" type="line"/>
			<point x="8" y="996" type="line"/>
			<point x="8" y="-166" type="line"/>
		</contour>
	</outline>
</glyph>
<glyph name="_119" format="2">
	<unicode hex="0177"/>
	<advance width="200"/>
	<outline>
		<component base="cap" yOffset="-190"/>
		<component base="cap" yOffset="992"/>
		<contour>
			<point x="0" y="-186" type="line"/>
			<point x="0" y="996" type="line"/>
			<point x="8" y="996" type="line"/>
			<point x="8" y="-186" type="line"/>
		</contour>
	</outline>
</glyph>
<glyph name="_121" format="2">
	<unicode hex="0179"/>
	<advance width="200"/>
	<outline>
		<component base="cap" yOffset="-210"/>
		<component base="cap" yOffset="992"/>
		<contour>
			<point x="0" y="-206" type="line"/>
			<point x="0" y="996" type="line"/>
			<point x="8" y="996" type="line"/>
			<point x="8" y="-206" type="line"/>
		</contour>
	</outline>
</glyph>
<glyph name="_123" format="2">
	<unicode hex="017B"/>
	<advance width="200"/>
	<outline>
		<component base="cap" yOffset="-230"/>
		<component base="cap" yOffset="992"/>
		<contour>
			<point x="0" y="-226" type="line"/>
			<point x="0" y="996" type="line"/>
			<point x="8" y="996" type="line"/>
			<point x="8" y="-226" type="line"/>
		</contour>
	</outline>
</glyph>
<glyph name="_124" format="2">
	<unicode hex="017C"/>
	<advance width="200"/>
	<outline>
		<component base="cap" yOffset="-240"/>
		<component base="cap" yOffset="992"/>
		<contour>
			<point x="0" y="-236" type="line"/>
			<point x="0" y="996" type="line"/>
			<point x="8" y="996" type="line"/>
			<point x="8" y="-236" type="line"/>
		</contour>
	</outline>
</glyph>
<glyph name="_12.clip" format="2">
	<advance width="200"/>
	<outline>
		<contour>
			<point x="0" y="973"/>
			<point x="26" y="1000"/>
			<point x="60" y="1000" type="curve" smooth="yes"/>
			<point x="-52" y="1000" type="line"/>
			<point x="-18" y="1000"/>
			<point x="8" y="973"/>
			<point x="8" y="940" type="curve" smooth="yes"/>
			<point x="8" y="940" type="line"/>
			<point x="8" y="907"/>
			<point x="-18" y="880"/>
			<point x="-52" y="880" type="curve" smooth="yes"/>
			<point x="60" y="880" type="line"/>
			<point x="26" y="880"/>
			<point x="0" y="907"/>
			<point x="0" y="940" type="curve" smooth="yes"/>
			<point x="0" y="940" type="line"/>
		</contour>
	</outline>
</glyph>
<glyph name="_15.clip" format="2">
	<advance width="200"/>
	<outline>
		<contour>
			<point x="0" y="966.25"/>
			<point x="33.75" y="1000"/>
			<point x="75" y="1000" type="curve" smooth="yes"/>
			<point x="-67" y="1000" type="line"/>
			<point x="-25.75" y="1000"/>
			<point x="8" y="966.25"/>
			<point x="8" y="925" type="curve" smooth="yes"/>
			<point x="8" y="925" type="line"/>
			<point x="8" y="883.75"/>
			<point x="-25.75" y="850"/>
			<point x="-67" y="850" type="curve" smooth="yes"/>
			<point x="75" y="850" type="line"/>
			<point x="33.75" y="850"/>
			<point x="0" y="883.75"/>
			<point x="0" y="925" type="curve" smooth="yes"/>
			<point x="0" y="925" type="line"/>
		</contour>
	</outline>
</glyph>
<glyph name="_17.clip" format="2">
	<advance width="200"/>
	<outline>
		<contour>
			<point x="0" y="961.75"/>
			<point x="38.25" y="1000"/>
			<point x="85" y="1000" type="curve" smooth="yes"/>
			<point x="-77" y="1000" type="line"/>
			<point x="-30.25" y="1000"/>
			<point x="8" y="961.75"/>
			<point x="8" y="915" type="curve" smooth="yes"/>
			<point x="8" y="915" type="line"/>
			<point x="8" y="868.25"/>
			<point x="-30.25" y="830"/>
			<point x="-77" y="830" type="curve" smooth="yes"/>
			<point x="85" y="830" type="line"/>
			<point x="38.25" y="830"/>
			<point x="0" y="868.25"/>
			<point x="0" y="915" type="curve" smooth="yes"/>
			<point x="0" y="915" type="line"/>
		</contour>
	</outline>
</glyph>
<glyph name="_19.clip" format="2">
	<advance width="200"/>
	<outline>
		<contour>
			<point x="0" y="957.25"/>
			<point x="42.75" y="1000"/>
			<point x="95" y="1000" type="curve" smooth="yes"/>
			<point x="-87" y="1000" type="line"/>
			<point x="-34.75" y="1000"/>
			<point x="8" y="957.25"/>
			<point x="8" y="905" type="curve" smooth="yes"/>
			<point x="8" y="905" type="line"/>
			<point x="8" y="852.75"/>
			<point x="-34.75" y="810"/>
			<point x="-87" y="810" type="curve" smooth="yes"/>
			<point x="95" y="810" type="line"/>
			<point x="42.75" y="810"/>
			<point x="0" y="852.75"/>
			<point x="0" y="905" type="curve" smooth="yes"/>
			<point x="0" y="905" type="line"/>
		</contour>
	</outline>
</glyph>
<glyph name="_24.clip" format="2">
	<advance width="200"/>
	<outline>
		<contour>
			<point x="0" y="946"/>
			<point x="53" y="1000"/>
			<point x="120" y="1000" type="curve" smooth="yes"/>
			<point x="-112" y="1000" type="line"/>
			<point x="-45" y="1000"/>
			<point x="8" y="946"/>
			<point x="8" y="880" type="curve" smooth="yes"/>
			<point x="8" y="880" type="line"/>
			<point x="8" y="814"/>
			<point x="-45" y="760"/>
			<point x="-112" y="760" type="curve" smooth="yes"/>
			<point x="120" y="760" type="line"/>
			<point x="53" y="760"/>
			<point x="0" y="814"/>
			<point x="0" y="880" type="curve" smooth="yes"/>
			<point x="0" y="880" type="line"/>
		</contour>
	</outline>
</glyph>
<glyph name="_4.clip" format="2">
	<advance width="200"/>
	<outline>
		<contour>
			<point x="0" y="991"/>
			<point x="9" y="1000"/>
			<point x="20" y="1000" type="curve" smooth="yes"/>
			<point x="-12" y="1000" type="line"/>
			<point x="-1" y="1000"/>
			<point x="8" y="991"/>
			<point x="8" y="980" type="curve" smooth="yes"/>
			<point x="8" y="980" type="line"/>
			<point x="8" y="969"/>
			<point x="-1" y="960"/>
			<point x="-12" y="960" type="curve" smooth="yes"/>
			<point x="20" y="960" type="line"/>
			<point x="9" y="960"/>
			<point x="0" y="969"/>
			<point x="0" y="980" type="curve" smooth="yes"/>
			<point x="0" y="980" type="line"/>
		</contour>
	</outline>
</glyph>
<glyph name="_7.clip" format="2">
	<advance width="200"/>
	<outline>
		<contour>
			<point x="0" y="984.25"/>
			<point x="15.75" y="1000"/>
			<point x="35" y="1000" type="curve" smooth="yes"/>
			<point x="-27" y="1000" type="line"/>
			<point x="-7.75" y="1000"/>
			<point x="8" y="984.25"/>
			<point x="8" y="965" type="curve" smooth="yes"/>
			<point x="8" y="965" type="line"/>
			<point x="8" y="945.75"/>
			<point x="-7.75" y="930"/>
			<point x="-27" y="930" type="curve" smooth="yes"/>
			<point x="35" y="930" type="line"/>
			<point x="15.75" y="930"/>
			<point x="0" y="945.75"/>
			<point x="0" y="965" type="curve" smooth="yes"/>
			<point x="0" y="965" type="line"/>
		</contour>
	</outline>
</glyph>
<glyph name="_8.clip" format="2">
	<advance width="200"/>
	<outline>
		<contour>
			<point x="0" y="982"/>
			<point x="18" y="1000"/>
			<point x="40" y="1000" type="curve" smooth="yes"/>
			<point x="-32" y="1000" type="line"/>
			<point x="-10" y="1000"/>
			<point x="8" y="982"/>
			<point x="8" y="960" type="curve" smooth="yes"/>
			<point x="8" y="960" type="line"/>
			<point x="8" y="938"/>
			<point x="-10" y="920"/>
			<point x="-32" y="920" type="curve" smooth="yes"/>
			<point x="40" y="920" type="line"/>
			<point x="18" y="920"/>
			<point x="0" y="938"/>
			<point x="0" y="960" type="curve" smooth="yes"/>
			<point x="0" y="960" type="line"/>
		</contour>
	</outline>
</glyph>
<glyph name="cap" format="2">
	<outline>
		<contour>
			<point x="0" y="6.2"/>
			<point x="1.8" y="8"/>
			<point x="4" y="8" type="curve" smooth="yes"/>
			<point x="4" y="8" type="line"/>
			<point x="6.2" y="8"/>
			<point x="8" y="6.2"/>
			<point x="8" y="4" type="curve" smooth="yes"/>
			<point x="8" y="4" type="line"/>
			<point x="8" y="1.8"/>
			<point x="6.2" y="0"/>
			<point x="4" y="0" type="curve" smooth="yes"/>
			<point x="4" y="0" type="line"/>
			<point x="1.8" y="0"/>
			<point x="0" y="1.8"/>
			<point x="0" y="4" type="curve" smooth="yes"/>
			<point x="0" y="4" type="line"/>
		</contour>
	</outline>
</glyph>
